<?xml version="1.0" encoding="UTF-8" standalone="no"?>
<svg
   id="uuid-1de7341d-a764-498e-82ac-43064f29ab4e"
   data-name="Ebene 1"
   viewBox="0 0 464.78 488.92"
   version="1.1"
   sodipodi:docname="RT-logo.svg"
   inkscape:version="1.4.2 (ebf0e940d0, 2025-05-08)"
   xmlns:inkscape="http://www.inkscape.org/namespaces/inkscape"
   xmlns:sodipodi="http://sodipodi.sourceforge.net/DTD/sodipodi-0.dtd"
   xmlns="http://www.w3.org/2000/svg"
   xmlns:svg="http://www.w3.org/2000/svg">
  <defs
     id="defs7" />
  <sodipodi:namedview
     id="namedview7"
     pagecolor="#ffffff"
     bordercolor="#000000"
     borderopacity="0.25"
     inkscape:showpageshadow="2"
     inkscape:pageopacity="0.0"
     inkscape:pagecheckerboard="0"
     inkscape:deskcolor="#d1d1d1"
     inkscape:zoom="1.503123"
     inkscape:cx="238.83608"
     inkscape:cy="245.15625"
     inkscape:window-width="1916"
     inkscape:window-height="1046"
     inkscape:window-x="0"
     inkscape:window-y="0"
     inkscape:window-maximized="0"
     inkscape:current-layer="uuid-1de7341d-a764-498e-82ac-43064f29ab4e" />
  <path
     d="m80.61,68.12v4.23c0,47.54,0,95.08,0,142.62q0,4.21-4.15,4.21c-8.56,0-17.12-.12-25.68.07-2.96.07-3.83-.75-3.81-3.76.12-26.4.07-52.8.07-79.2,0-27.74-.06-55.48.09-83.22.02-3.3.65-6.85,2-9.83,2.59-5.73,7.56-8.63,13.83-8.8,7.21-.19,14.44-.07,21.66-.07,35.27,0,70.54.29,105.81-.1,21.38-.24,37.58,13.64,40.26,33.1,2.15,15.6,2.6,31.56-1.3,47.03-5.55,21.96-20.45,35.16-41.66,41.59-5.37,1.63-11.06,2.2-17.17,3.37,22.85,19.76,45.53,39.37,68.83,59.51-1.6.15-2.44.3-3.28.3-15.26.01-30.52.06-45.79-.07-1.47-.01-3.23-.72-4.35-1.69-21.88-18.82-43.67-37.75-65.57-56.55-1.33-1.14-3.41-1.9-5.18-1.97-6.08-.24-12.17-.19-18.25-.04-2.48.06-3.17-.83-3.14-3.21.11-9.07.13-18.15-.01-27.22-.04-2.63.85-3.3,3.36-3.29,23.51.08,47.03.12,70.54,0,8.73-.04,16.66-2.58,23-8.96,4.16-4.18,6.74-9.26,6.98-15.1.38-8.95.35-17.93.23-26.9-.06-4.42-2.22-6.26-6.71-6.27-36.09-.03-72.19-.02-108.28-.02-.61,0-1.22.11-2.32.21Z"
     style="stroke-width: 0px;"
     id="path2" />
  <path
     d="m347.16,194.09v4.37c0,44.14-.18,88.28.13,132.42.07,9.98-1.27,19.39-4.91,28.63-2.22,5.65-4.02,11.46-5.87,17.25-.49,1.54-.69,3.23-.71,4.86-.07,8.66.02,17.33-.07,25.99-.02,1.94.62,3.16,2.13,4.41,5.33,4.4,5.66,12.11.9,16.98-4.58,4.69-12.04,4.62-16.59-.16-4.68-4.92-4.23-12.65,1.22-16.95,1.7-1.34,2.16-2.74,2.12-4.72-.09-4.85-.33-9.72.04-14.54.72-9.48-1.15-18.38-4.79-27.07-1.9-4.55-3.26-9.33-5.06-13.93-1.65-4.2-2.14-8.48-2.13-12.98.08-46.61.05-93.23.04-139.84,0-5.1.78-4.72-4.86-4.72-21.76-.01-43.52-.06-65.28.06-3.05.02-4.09-.67-4.02-3.92.23-9.68.08-19.37.08-29.4,1.33-.12,2.51-.33,3.69-.33,57.96-.02,115.92,0,173.88-.07,2.9,0,3.94.68,3.87,3.76-.2,8.86-.15,17.74-.02,26.61.04,2.57-.79,3.35-3.36,3.34-22.07-.09-44.14-.05-66.21-.05h-4.23Z"
     style="stroke-width: 0px;"
     id="path3" />
  <path
     d="m283.88,432.67c-6.6,0-13.2.04-19.8-.04-1.31-.01-2.67-.29-3.91-.72-2.17-.76-3.7-2.55-3.08-4.71.5-1.71,2.1-3.26,3.55-4.48.71-.6,2.18-.4,3.3-.41,13.41-.03,26.81-.04,40.22-.02,1.12,0,2.61-.15,3.29.46,1.42,1.28,3.2,2.96,3.33,4.59.11,1.43-1.62,3.28-2.97,4.45-.88.76-2.53.82-3.83.83-6.7.08-13.41.04-20.11.03Z"
     style="stroke-width: 0px;"
     id="path4" />
  <path
     d="m376.84,422.28c6.7,0,13.41-.02,20.11.02,1.12,0,2.61-.14,3.29.48,1.41,1.28,3.19,2.98,3.31,4.62.1,1.43-1.65,3.27-3.01,4.42-.88.75-2.53.81-3.84.82-13.3.05-26.6.05-39.91,0-1.21,0-2.46-.26-3.62-.63-2.33-.74-3.59-2.42-3.44-4.89.15-2.62,1.74-4.09,4.24-4.58.9-.18,1.84-.22,2.76-.23,6.7-.02,13.41,0,20.11,0,0,0,0-.01,0-.02Z"
     style="stroke-width: 0px;"
     id="path5" />
  <path
     d="m395.79,379.97c-1.78,2-2.99,4.13-4.81,5.27-11.26,7.02-22.65,13.82-34.01,20.66-1.05.63-2.16,1.22-3.32,1.57-2.35.7-4.64-.02-5.51-2.18-.62-1.54-.26-3.69.25-5.4.29-.99,1.63-1.8,2.66-2.43,11.49-7.04,23.01-14.02,34.52-21.02,2.21-1.35,4.63-2.23,6.96-.74,1.23.79,1.91,2.42,3.28,4.27Z"
     style="stroke-width: 0px;"
     id="path6" />
  <path
     d="m271.11,374.52c1.92.81,3.31,1.22,4.51,1.95,11.54,6.95,23.05,13.95,34.55,20.96.69.42,1.34.95,1.93,1.52,1.92,1.87,2.49,4.14,1.04,6.42-1.52,2.39-3.98,3.14-6.47,1.74-5.47-3.06-10.8-6.37-16.17-9.59-6.79-4.07-13.58-8.14-20.33-12.27-1.03-.63-2.37-1.42-2.69-2.42-.55-1.71-1.03-3.91-.39-5.41.57-1.34,2.7-2.01,4.03-2.9Z"
     style="stroke-width: 0px;"
     id="path7" />
</svg>
